<?xml version="1.0" encoding="UTF-8" standalone="no"?>
<svg width="24px" height="23px" viewBox="0 0 24 23" version="1.1" xmlns="http://www.w3.org/2000/svg" xmlns:xlink="http://www.w3.org/1999/xlink">
    <!-- Generator: Sketch 3.8.3 (29802) - http://www.bohemiancoding.com/sketch -->
    <title>Github-color</title>
    <desc>Created with Sketch.</desc>
    <defs></defs>
    <g id="Welcome" stroke="none" stroke-width="1" fill="none" fill-rule="evenodd">
        <g id="Mobile-Portrait" transform="translate(-236.000000, -286.000000)" fill="#3E75C3">
            <g id="social" transform="translate(60.000000, 286.000000)">
                <path d="M188.09173,0 C181.867891,0 176.821192,5.06599689 176.821192,11.3166294 C176.821192,16.315438 180.050403,20.5567871 184.530017,22.0533178 C185.093579,22.1572828 185.299279,21.8079037 185.299279,21.5080318 C185.299279,21.2392786 185.289417,20.52779 185.283781,19.5836178 C182.148263,20.2675238 181.486782,18.0665769 181.486782,18.0665769 C180.974645,16.7595879 180.235674,16.4116233 180.235674,16.4116233 C179.212104,15.7093289 180.313164,15.7234738 180.313164,15.7234738 C181.44381,15.8033925 182.039073,16.889721 182.039073,16.889721 C183.045031,18.6189354 184.677248,18.1196203 185.319709,17.8296498 C185.421854,17.0983584 185.713498,16.5997505 186.035432,16.3168525 C183.532512,16.0311254 180.901382,15.0607851 180.901382,10.7246652 C180.901382,9.48910796 181.340256,8.47916191 182.061615,7.6877546 C181.94538,7.40132032 181.558636,6.25133974 182.17151,4.69327871 C182.17151,4.69327871 183.118294,4.3891633 185.271101,5.85316073 C186.170687,5.6020887 187.134378,5.47690632 188.093138,5.4719556 C189.05049,5.47690632 190.014885,5.6020887 190.915176,5.85316073 C193.066574,4.3891633 194.011245,4.69327871 194.011245,4.69327871 C194.626232,6.25133974 194.239488,7.40132032 194.123253,7.6877546 C194.846021,8.47916191 195.282078,9.48910796 195.282078,10.7246652 C195.282078,15.0713938 192.64672,16.0282965 190.136051,16.3083655 C190.540407,16.6577446 190.901087,17.3480159 190.901087,18.4039329 C190.901087,19.9167302 190.886998,21.1367281 190.886998,21.5080318 C190.886998,21.8107327 191.08988,22.1629408 191.661895,22.0519033 C196.137283,20.5525436 199.363676,16.3140235 199.363676,11.3166294 C199.363676,5.06599689 194.316977,0 188.09173,0" id="Github"></path>
            </g>
        </g>
    </g>
</svg>