<?xml version="1.0" encoding="UTF-8" standalone="no"?>
<svg width="22px" height="22px" viewBox="0 0 22 22" version="1.1" xmlns="http://www.w3.org/2000/svg" xmlns:xlink="http://www.w3.org/1999/xlink">
    <!-- Generator: Sketch 3.8.3 (29802) - http://www.bohemiancoding.com/sketch -->
    <title>Google-color</title>
    <desc>Created with Sketch.</desc>
    <defs></defs>
    <g id="Welcome" stroke="none" stroke-width="1" fill="none" fill-rule="evenodd">
        <g id="Mobile-Portrait" transform="translate(-122.000000, -286.000000)">
            <g id="social" transform="translate(60.000000, 286.000000)">
                <g id="Google" transform="translate(62.251656, 0.001471)">
                    <path d="M4.51908137,11.0364244 C4.51908137,10.3354889 4.63549684,9.66349325 4.84327634,9.03319078 L1.20639825,6.25593588 C0.497590156,7.69508563 0.0982408994,9.31670426 0.0982408994,11.0364244 C0.0982408994,12.7546731 0.497098951,14.3753107 1.20492463,15.8134795 L4.83983791,13.030829 C4.63402323,12.4034696 4.51908137,11.7339265 4.51908137,11.0364244" id="Fill-1" fill="#FBBC05"></path>
                    <path d="M10.9047398,4.65982366 C12.4274738,4.65982366 13.8028464,5.19938218 14.8834963,6.08229614 L18.027205,2.94304652 C16.1115075,1.27532016 13.655485,0.245253877 10.9047398,0.245253877 C6.63420794,0.245253877 2.96392794,2.68749198 1.20639825,6.25593588 L4.84327634,9.03319078 C5.68127121,6.48941758 8.06999868,4.65982366 10.9047398,4.65982366" id="Fill-2" fill="#EB4335"></path>
                    <path d="M10.9047398,17.4130252 C8.06999868,17.4130252 5.68127121,15.5834313 4.84327634,13.0396581 L1.20639825,15.8164225 C2.96392794,19.3853569 6.63420794,21.827595 10.9047398,21.827595 C13.5405432,21.827595 16.0569838,20.8917062 17.9456651,19.138141 L14.4934799,16.4692883 C13.5194214,17.0829135 12.2928837,17.4130252 10.9047398,17.4130252" id="Fill-3" fill="#34A853"></path>
                    <path d="M21.2200343,11.0364244 C21.2200343,10.3987644 21.1217934,9.71205351 20.974432,9.07439343 L10.9047398,9.07439343 L10.9047398,13.2437093 L16.7009529,13.2437093 C16.4111423,14.6652008 15.6222678,15.7580521 14.4934799,16.4692883 L17.9456651,19.138141 C19.9296401,17.2967749 21.2200343,14.5538555 21.2200343,11.0364244" id="Fill-4" fill="#4285F4"></path>
                </g>
            </g>
        </g>
    </g>
</svg>