<?xml version="1.0" encoding="UTF-8" standalone="no"?>
<svg width="27px" height="23px" viewBox="0 0 27 23" version="1.1" xmlns="http://www.w3.org/2000/svg" xmlns:xlink="http://www.w3.org/1999/xlink">
    <!-- Generator: Sketch 3.8.3 (29802) - http://www.bohemiancoding.com/sketch -->
    <title>Twitter-color</title>
    <desc>Created with Sketch.</desc>
    <defs></defs>
    <g id="Welcome" stroke="none" stroke-width="1" fill="none" fill-rule="evenodd">
        <g id="Mobile-Portrait" transform="translate(-176.000000, -286.000000)" fill="#00AAEC">
            <g id="social" transform="translate(60.000000, 286.000000)">
                <path d="M142.384106,2.61329111 C141.410767,3.0565461 140.362794,3.35630128 139.263512,3.49023444 C140.386117,2.80143532 141.247507,1.70924227 141.653324,0.408177257 C140.602242,1.04595422 139.440765,1.50993696 138.199991,1.75866998 C137.211103,0.676043582 135.79774,0 134.233556,0 C131.23424,0 128.800892,2.49530237 128.800892,5.57257623 C128.800892,6.00945345 128.847538,6.43357513 128.940829,6.84175239 C124.423975,6.6089638 120.420223,4.39268884 117.738098,1.01725426 C117.270086,1.84317543 117.002651,2.80143532 117.002651,3.82187846 C117.002651,5.75434266 117.961997,7.46039604 119.420451,8.46011144 C118.531074,8.43300591 117.691452,8.17948957 116.957561,7.76493454 L116.957561,7.83349557 C116.957561,10.534481 118.831161,12.7874281 121.318929,13.2976497 C120.863357,13.428394 120.382906,13.4937661 119.886908,13.4937661 C119.537065,13.4937661 119.194997,13.4602828 118.863813,13.3949107 C119.555723,15.6079968 121.561487,17.219978 123.940415,17.263028 C122.080808,18.758615 119.736087,19.6499083 117.190789,19.6499083 C116.75232,19.6499083 116.318515,19.6243972 115.89404,19.573375 C118.299401,21.151873 121.157224,22.0750552 124.224953,22.0750552 C134.222672,22.0750552 139.687987,13.5846493 139.687987,6.21991985 C139.687987,5.9775646 139.683323,5.73520935 139.673994,5.49763743 C140.73596,4.71157733 141.657989,3.73099524 142.384106,2.61329111" id="Twitter"></path>
            </g>
        </g>
    </g>
</svg>